<mxfile host="65bd71144e">
    <diagram id="o-LtjQCrtthywkRfx0n5" name="Page-1">
        <mxGraphModel dx="519" dy="412" grid="1" gridSize="10" guides="1" tooltips="1" connect="1" arrows="1" fold="1" page="1" pageScale="1" pageWidth="850" pageHeight="1100" math="1" shadow="0">
            <root>
                <mxCell id="0"/>
                <mxCell id="1" parent="0"/>
                <mxCell id="cySrC5GhPG5ZmhvcfBr7-1" value="" style="endArrow=none;html=1;exitX=0.072;exitY=0.688;exitDx=0;exitDy=0;exitPerimeter=0;" parent="1" source="cySrC5GhPG5ZmhvcfBr7-4" target="cySrC5GhPG5ZmhvcfBr7-2" edge="1">
                    <mxGeometry width="50" height="50" relative="1" as="geometry">
                        <mxPoint x="480" y="370" as="sourcePoint"/>
                        <mxPoint x="430" y="290" as="targetPoint"/>
                    </mxGeometry>
                </mxCell>
                <mxCell id="cySrC5GhPG5ZmhvcfBr7-3" value="$$12$$" style="text;html=1;strokeColor=none;fillColor=none;align=center;verticalAlign=middle;whiteSpace=wrap;rounded=0;strokeWidth=3;fontSize=20;" parent="1" vertex="1">
                    <mxGeometry x="190" y="440" width="40" height="20" as="geometry"/>
                </mxCell>
                <mxCell id="cySrC5GhPG5ZmhvcfBr7-6" value="" style="endArrow=none;html=1;fontSize=20;strokeColor=#B3B3B3;" parent="1" edge="1">
                    <mxGeometry width="50" height="50" relative="1" as="geometry">
                        <mxPoint x="160" y="460" as="sourcePoint"/>
                        <mxPoint x="480" y="460" as="targetPoint"/>
                    </mxGeometry>
                </mxCell>
                <mxCell id="cySrC5GhPG5ZmhvcfBr7-4" value="" style="ellipse;whiteSpace=wrap;html=1;aspect=fixed;strokeColor=#6c8ebf;fillColor=#0072B2;" parent="1" vertex="1">
                    <mxGeometry x="470" y="350" width="20" height="20" as="geometry"/>
                </mxCell>
                <mxCell id="cySrC5GhPG5ZmhvcfBr7-5" value="$$15$$" style="text;html=1;strokeColor=none;fillColor=none;align=center;verticalAlign=middle;whiteSpace=wrap;rounded=0;strokeWidth=3;fontSize=20;" parent="1" vertex="1">
                    <mxGeometry x="430" y="340" width="40" height="20" as="geometry"/>
                </mxCell>
                <mxCell id="cySrC5GhPG5ZmhvcfBr7-2" value="" style="ellipse;whiteSpace=wrap;html=1;aspect=fixed;strokeColor=#6c8ebf;fillColor=#0072B2;" parent="1" vertex="1">
                    <mxGeometry x="230" y="450" width="20" height="20" as="geometry"/>
                </mxCell>
                <mxCell id="cySrC5GhPG5ZmhvcfBr7-7" value="x-axis" style="text;html=1;strokeColor=none;fillColor=none;align=center;verticalAlign=middle;whiteSpace=wrap;rounded=0;strokeWidth=3;fontSize=20;fontColor=#B3B3B3;" parent="1" vertex="1">
                    <mxGeometry x="380" y="440" width="110" height="20" as="geometry"/>
                </mxCell>
                <mxCell id="cySrC5GhPG5ZmhvcfBr7-9" value="" style="verticalLabelPosition=bottom;verticalAlign=top;html=1;shape=mxgraph.basic.arc;startAngle=0.8274083440268246;endAngle=0.0965699923238244;fontSize=20;strokeWidth=1;rotation=105;fillColor=#009E73;strokeColor=#009E73;" parent="1" vertex="1">
                    <mxGeometry x="276.96" y="416.28999999999996" width="40" height="53.71" as="geometry"/>
                </mxCell>
                <mxCell id="cySrC5GhPG5ZmhvcfBr7-11" value="angle to sort by" style="text;html=1;fillColor=none;align=center;verticalAlign=middle;whiteSpace=wrap;rounded=0;strokeWidth=3;fontSize=20;fontColor=#009E73;" parent="1" vertex="1">
                    <mxGeometry x="175.44" y="370" width="141.52" height="20" as="geometry"/>
                </mxCell>
                <mxCell id="cySrC5GhPG5ZmhvcfBr7-14" value="" style="endArrow=classic;html=1;labelBackgroundColor=#009E73;fontSize=20;exitX=0;exitY=1;exitDx=0;exitDy=0;fontColor=#009E73;strokeColor=#009E73;" parent="1" source="cySrC5GhPG5ZmhvcfBr7-11" target="cySrC5GhPG5ZmhvcfBr7-16" edge="1">
                    <mxGeometry width="50" height="50" relative="1" as="geometry">
                        <mxPoint x="320" y="500" as="sourcePoint"/>
                        <mxPoint x="370" y="450" as="targetPoint"/>
                        <Array as="points">
                            <mxPoint x="320" y="390"/>
                        </Array>
                    </mxGeometry>
                </mxCell>
                <mxCell id="cySrC5GhPG5ZmhvcfBr7-15" value="$$(x_{12}, y_{12})$$" style="text;html=1;strokeColor=none;fillColor=none;align=center;verticalAlign=middle;whiteSpace=wrap;rounded=0;strokeWidth=3;fontSize=20;" parent="1" vertex="1">
                    <mxGeometry x="190" y="480" width="110" height="20" as="geometry"/>
                </mxCell>
                <mxCell id="cySrC5GhPG5ZmhvcfBr7-16" value="$$\alpha$$" style="text;html=1;fillColor=none;align=center;verticalAlign=middle;whiteSpace=wrap;rounded=0;strokeWidth=3;fontSize=20;fontColor=#009E73;" parent="1" vertex="1">
                    <mxGeometry x="316.96" y="440" width="50" height="20" as="geometry"/>
                </mxCell>
                <mxCell id="cySrC5GhPG5ZmhvcfBr7-17" value="$$(x_{15}, y_{15})$$" style="text;html=1;strokeColor=none;fillColor=none;align=center;verticalAlign=middle;whiteSpace=wrap;rounded=0;strokeWidth=3;fontSize=20;" parent="1" vertex="1">
                    <mxGeometry x="425" y="390" width="110" height="20" as="geometry"/>
                </mxCell>
            </root>
        </mxGraphModel>
    </diagram>
</mxfile>